<svg width="24" height="24" viewBox="0 0 24 24" fill="none" xmlns="http://www.w3.org/2000/svg">
<path d="M18.5374 12.7262C18.5711 16.3512 21.7175 17.5575 21.7524 17.5729C21.7258 17.658 21.2496 19.2921 20.0947 20.9799C19.0963 22.4392 18.0601 23.8931 16.4277 23.9232C14.8238 23.9527 14.308 22.972 12.4743 22.972C10.6411 22.972 10.068 23.8931 8.54972 23.9527C6.9741 24.0123 5.77428 22.3747 4.76757 20.9209C2.7105 17.9469 1.13847 12.5171 3.24931 8.85185C4.29793 7.03169 6.17189 5.87909 8.20591 5.84953C9.75314 5.82002 11.2135 6.89045 12.1594 6.89045C13.1046 6.89045 14.8793 5.60316 16.745 5.79222C17.526 5.82472 19.7184 6.10771 21.1261 8.16833C21.0127 8.23865 18.5102 9.69549 18.5374 12.7262ZM15.523 3.82466C16.3595 2.8121 16.9225 1.40252 16.7689 0C15.5631 0.048461 14.1051 0.803489 13.2402 1.81549C12.4651 2.71167 11.7863 4.14606 11.9695 5.52082C13.3135 5.6248 14.6864 4.83787 15.523 3.82466Z" fill="black"/>
</svg>
