<svg width="24" height="21" viewBox="0 0 24 21" fill="none" xmlns="http://www.w3.org/2000/svg">
<path d="M7.1838 12.973C7.16519 13.3011 7.10221 13.6252 6.9966 13.9363L11.4855 18.6631C11.7372 18.9283 11.8769 19.2803 11.8755 19.6459C11.8897 19.829 11.858 20.0126 11.783 20.1802C11.7081 20.3478 11.5924 20.4939 11.4465 20.6053C11.1557 20.8332 10.7947 20.9527 10.4254 20.9435C10.056 20.9342 9.70145 20.7968 9.4224 20.5546L4.9257 15.8278C4.60823 15.9166 4.28033 15.9625 3.9507 15.9643C3.44298 15.988 2.93572 15.9089 2.45932 15.7317C1.98292 15.5546 1.5472 15.283 1.17828 14.9334C0.809358 14.5838 0.514834 14.1633 0.312365 13.6971C0.109896 13.2309 0.00365045 12.7286 0 12.2203C0.0144369 11.8918 0.0775237 11.5671 0.187201 11.257C0.187201 11.0932 0.351001 11.0971 0.510901 11.1829L2.4804 13.3357C2.50831 13.3736 2.54473 13.4044 2.58673 13.4257C2.62874 13.4469 2.67514 13.458 2.7222 13.458C2.76926 13.458 2.81567 13.4469 2.85767 13.4257C2.89967 13.4044 2.93609 13.3736 2.964 13.3357L4.3758 11.998C4.41415 11.9616 4.44469 11.9178 4.46556 11.8692C4.48643 11.8205 4.49719 11.7682 4.49719 11.7153C4.49719 11.6624 4.48643 11.6101 4.46556 11.5614C4.44469 11.5128 4.41415 11.469 4.3758 11.4325L2.418 9.36945C2.34 9.28755 2.3478 9.04575 2.5077 9.04965C2.82696 8.96982 3.15379 8.92407 3.4827 8.91315C4.00465 8.8961 4.52408 8.99245 5.00519 9.19556C5.4863 9.39867 5.91763 9.70371 6.26946 10.0896C6.62128 10.4756 6.88521 10.9332 7.04307 11.431C7.20092 11.9288 7.24894 12.4549 7.1838 12.973Z" fill="#228B22"/>
<path d="M22.7994 4.18246C22.5713 3.36223 22.1726 2.5994 21.6294 1.94385C20.9997 1.19389 20.1751 0.632439 19.2465 0.321454C18.7558 0.157927 18.2458 0.059585 17.7294 0.028954C16.9482 -0.0311602 16.1637 0.0889266 15.4362 0.379955C14.62 0.710807 13.8854 1.21515 13.2834 1.85805C13.0416 2.11155 12.8232 2.38455 12.5853 2.63806L12.5307 2.56785C12.1743 2.09838 11.7662 1.67058 11.3139 1.29255C10.816 0.877475 10.2517 0.549187 9.64473 0.321454C8.92794 0.0594313 8.16292 -0.044344 7.40223 0.0172545C6.65316 0.0660491 5.92131 0.263594 5.24943 0.598355C4.1135 1.17014 3.21279 2.1205 2.70273 3.28546C2.31168 4.15522 2.09568 5.09346 2.06703 6.04666C2.0491 6.53265 2.08441 7.01915 2.17233 7.49746L2.26983 7.47796C2.663 7.38764 3.06395 7.3354 3.46713 7.32196H3.54123C4.27451 7.31112 5.00173 7.45613 5.67477 7.74739C6.34781 8.03865 6.95132 8.46953 7.44537 9.0115C7.93941 9.55348 8.31273 10.1942 8.5406 10.8913C8.76848 11.5883 8.84573 12.3258 8.76723 13.055C8.7633 13.1855 8.75158 13.3158 8.73213 13.445L12.6321 17.5595C13.0359 17.9819 13.307 18.5134 13.4121 19.0883C14.9722 17.9662 16.4525 16.7374 17.8425 15.4106C18.9027 14.4098 19.8784 13.3232 20.7597 12.1619C21.3807 11.3479 21.914 10.4708 22.3509 9.54496C22.7301 8.75257 22.9739 7.90233 23.0724 7.02946C23.1672 6.07173 23.0744 5.10472 22.7994 4.18246Z" fill="#228B22"/>
</svg>
