<svg width="30" height="30" viewBox="0 0 30 30" fill="none" xmlns="http://www.w3.org/2000/svg">
<g clip-path="url(#clip0_46_960)">
<path d="M2.0835 0C0.929271 0 -0.0090332 0.961384 -0.0090332 2.14276V7.14392H20.0333V2.14415C20.0333 0.962779 19.0957 0.00139502 17.9407 0.00139502L2.0835 0ZM3.58176 2.14415C3.97674 2.14415 4.29601 2.46414 4.29601 2.8584V5.00116C4.29601 5.39543 3.97674 5.71542 3.58176 5.71542C3.18678 5.71542 2.86751 5.39543 2.86751 5.00116V2.8584C2.86751 2.46414 3.18678 2.14415 3.58176 2.14415ZM-0.0090332 8.57242V25.7159C-0.0090332 26.8973 0.929952 27.8586 2.0849 27.8586H2.86751V29.2857C2.86751 29.68 3.18678 30 3.58176 30H6.43877C6.83375 30 7.15302 29.68 7.15302 29.2857V27.8586L12.867 27.8572V13.5722C12.867 11.9944 14.1463 10.7152 15.7241 10.7152H20.0333V8.57242H-0.0090332ZM3.58176 10.7152C3.97674 10.7152 4.29601 11.0352 4.29601 11.4294V14.2864C4.29601 14.6807 3.97674 15.0007 3.58176 15.0007C3.18678 15.0007 2.86751 14.6807 2.86751 14.2864V11.4294C2.86751 11.0352 3.18678 10.7152 3.58176 10.7152ZM16.4383 12.1437C15.2569 12.1437 14.2955 13.1051 14.2955 14.2864V27.8572C14.2955 29.0386 15.2569 30 16.4383 30H27.8663C29.0477 30 30.0091 29.0386 30.0091 27.8572V14.2864C30.0091 13.1051 29.0477 12.1437 27.8663 12.1437H16.4383ZM24.2951 14.2864C24.6893 14.2864 25.0093 14.6064 25.0093 15.0007C25.0093 15.395 24.6893 15.7149 24.2951 15.7149C23.9008 15.7149 23.5808 15.395 23.5808 15.0007C23.5808 14.6064 23.9008 14.2864 24.2951 14.2864ZM27.1521 14.2864C27.5464 14.2864 27.8663 14.6064 27.8663 15.0007C27.8663 15.395 27.5464 15.7149 27.1521 15.7149C26.7578 15.7149 26.4378 15.395 26.4378 15.0007C26.4378 14.6064 26.7578 14.2864 27.1521 14.2864ZM22.1523 17.8577C24.5158 17.8577 26.4378 19.7798 26.4378 22.1432C26.4378 24.5067 24.5158 26.4287 22.1523 26.4287C19.7889 26.4287 17.8668 24.5067 17.8668 22.1432C17.8668 19.7798 19.7889 17.8577 22.1523 17.8577ZM22.1523 19.2862C21.3946 19.2862 20.6679 19.5872 20.1321 20.123C19.5963 20.6588 19.2953 21.3855 19.2953 22.1432C19.2953 22.9009 19.5963 23.6276 20.1321 24.1634C20.6679 24.6992 21.3946 25.0002 22.1523 25.0002C22.91 25.0002 23.6367 24.6992 24.1725 24.1634C24.7083 23.6276 25.0093 22.9009 25.0093 22.1432C25.0093 21.3855 24.7083 20.6588 24.1725 20.123C23.6367 19.5872 22.91 19.2862 22.1523 19.2862Z" fill="#228B22"/>
</g>
<defs>
<clipPath id="clip0_46_960">
<rect width="30" height="30" fill="white"/>
</clipPath>
</defs>
</svg>
