<svg width="30" height="30" viewBox="0 0 30 30" fill="none" xmlns="http://www.w3.org/2000/svg">
<g clip-path="url(#clip0_44_922)">
<path d="M4.99998 0H8.74998C11.5114 0 13.75 2.23857 13.75 4.99998V8.74998C13.75 11.5114 11.5114 13.75 8.74998 13.75H4.99998C2.23857 13.75 0 11.5114 0 8.74998V4.99998C0 2.23857 2.23857 0 4.99998 0Z" fill="#228B22"/>
<path d="M4.99998 16.25H8.74998C11.5114 16.25 13.75 18.4885 13.75 21.2499V24.9999C13.75 27.7614 11.5114 29.9999 8.74998 29.9999H4.99998C2.23857 30 0 27.7614 0 25V21.25C0 18.4885 2.23857 16.25 4.99998 16.25Z" fill="#228B22"/>
<path d="M21.25 16.25H25C27.7614 16.25 30 18.4885 30 21.2499V24.9999C30 27.7614 27.7614 30 25 30H21.25C18.4886 30 16.25 27.7614 16.25 25V21.25C16.2499 18.4885 18.4885 16.25 21.25 16.25Z" fill="#228B22"/>
<path d="M17.5 8.74997H21.25V12.5C21.25 13.1903 21.8096 13.75 22.5 13.75C23.1903 13.75 23.7499 13.1903 23.7499 12.5V8.74997H27.4999C28.1903 8.74997 28.7499 8.19034 28.7499 7.49999C28.7499 6.80964 28.1903 6.25001 27.4999 6.25001H23.7499V2.50001C23.7499 1.80966 23.1903 1.25003 22.5 1.25003C21.8096 1.25003 21.25 1.80966 21.25 2.50001V6.25001H17.5C16.8096 6.25001 16.25 6.80964 16.25 7.49999C16.25 8.19034 16.8096 8.74997 17.5 8.74997Z" fill="#228B22"/>
</g>
<defs>
<clipPath id="clip0_44_922">
<rect width="30" height="30" fill="white"/>
</clipPath>
</defs>
</svg>
