<svg width="24" height="24" viewBox="0 0 24 24" fill="none" xmlns="http://www.w3.org/2000/svg">
<g clip-path="url(#clip0_785_562)">
<path d="M8.30959 15.0483C8.20734 15.0483 8.10261 15.0508 7.99791 15.0508C5.82357 15.0508 3.77141 14.7965 2.21796 14.3352C1.41754 14.0983 0.776712 13.8141 0.31292 13.4874C0.245595 13.44 0.183257 13.3927 0.123413 13.3453V16.9459C0.123413 18.235 3.64923 19.2798 7.99791 19.2798C8.2198 19.2798 8.43923 19.2773 8.65617 19.2723C8.33949 18.3896 8.17991 17.462 8.17991 16.512C8.17993 16.0158 8.22232 15.5271 8.30959 15.0483Z" fill="#228B22"/>
<path d="M10.5836 10.7071C10.9053 10.3855 11.2494 10.0937 11.6135 9.83439C10.5014 9.99896 9.2696 10.0862 7.99791 10.0862C5.82357 10.0862 3.77141 9.8319 2.21796 9.3706C1.41754 9.13371 0.776712 8.84946 0.31292 8.52281C0.245595 8.47543 0.183257 8.42805 0.123413 8.38068V11.9663C0.123413 12.0711 0.148348 12.1733 0.193231 12.2755C0.7044 13.42 4.00331 14.3002 7.99791 14.3002C8.15999 14.3002 8.32206 14.2977 8.48162 14.2952C8.57388 13.9636 8.68858 13.6345 8.82573 13.3153C8.97786 12.9537 9.15487 12.6072 9.35687 12.2755C9.69596 11.7095 10.1074 11.1834 10.5836 10.7071Z" fill="#228B22"/>
<path d="M7.99791 5.41589C5.82357 5.41589 3.77141 5.16155 2.21796 4.70025C1.41754 4.46337 0.776712 4.17911 0.31292 3.85246C0.245595 3.80508 0.183257 3.7577 0.123413 3.71033V6.55043V6.92446V7.00425C0.123413 7.10399 0.145855 7.20373 0.185751 7.29848C0.674478 8.44799 3.98585 9.33817 7.99791 9.33817C12.0099 9.33817 15.3213 8.44799 15.81 7.29848C15.8499 7.20124 15.8724 7.10399 15.8724 7.00425V6.92446V6.55043V3.71033C15.8125 3.7602 15.7502 3.80757 15.6829 3.85246C15.2191 4.17661 14.5782 4.46087 13.7778 4.70025C12.2244 5.16155 10.1722 5.41589 7.99791 5.41589Z" fill="#228B22"/>
<path d="M15.8724 2.33392C15.8724 2.20675 15.8375 2.08208 15.7702 1.9599C15.7003 1.83023 15.5956 1.70556 15.4585 1.58587C14.4062 0.663273 11.4639 0 7.99791 0C4.53193 0 1.58708 0.663273 0.537335 1.58587C0.400192 1.70556 0.295465 1.83023 0.225647 1.9599C0.158322 2.08208 0.123413 2.20675 0.123413 2.33392C0.123413 3.62307 3.64923 4.66784 7.99791 4.66784C12.3466 4.66784 15.8724 3.62307 15.8724 2.33392Z" fill="#228B22"/>
<path d="M16.6205 9.024C16.5432 9.02151 16.4659 9.01901 16.3861 9.01901C16.3388 9.01901 16.2914 9.01901 16.2465 9.02151C16.1218 9.024 15.9971 9.02899 15.8724 9.03647C13.5211 9.19605 11.4664 10.4403 10.2072 12.2755C9.79077 12.8815 9.45914 13.5547 9.23472 14.2728C9.19483 14.3975 9.15992 14.5247 9.1275 14.6518C9.09508 14.7765 9.06766 14.9037 9.04272 15.0284C8.9455 15.5071 8.89563 16.0033 8.89563 16.5095C8.89563 17.4745 9.07766 18.3946 9.40929 19.2399C10.5014 22.0251 13.2144 24 16.3861 24C20.5228 24 23.8766 20.6462 23.8766 16.5095C23.8791 12.4526 20.65 9.14867 16.6205 9.024ZM18.5804 20.1176C18.2038 20.5141 17.6902 20.7759 17.1017 20.8806V21.1799C17.1017 21.4542 16.8798 21.6761 16.6055 21.6761H16.3362C16.0619 21.6761 15.84 21.4542 15.84 21.1799V20.8682C15.5159 20.8058 15.2042 20.7011 14.9249 20.559C14.5958 20.3894 14.309 20.1127 14.0697 19.7386C13.9101 19.4893 13.7954 19.2 13.7255 18.8759C13.6981 18.7537 13.7206 18.6315 13.7779 18.5318C13.8477 18.4071 13.9724 18.3148 14.1245 18.2874L14.3913 18.24C14.4461 18.2301 14.501 18.2301 14.5509 18.24C14.7429 18.2699 14.905 18.4096 14.9548 18.6066C15.0296 18.9033 15.1319 19.1327 15.259 19.2948C15.5433 19.6589 16.012 19.8758 16.5133 19.8758C16.598 19.8758 16.6828 19.8683 16.7676 19.8558C17.1266 19.801 17.4483 19.6314 17.6702 19.3771C17.9071 19.1078 18.0268 18.7687 18.0268 18.3697C18.0268 18.0331 17.9445 17.7588 17.7799 17.5568C17.4782 17.1878 16.9621 17.0282 16.4958 16.9235C16.2789 16.8736 16.0719 16.8262 15.8674 16.7689C15.5283 16.6716 15.2017 16.5519 14.875 16.3699C14.5384 16.1829 14.2766 15.9186 14.0946 15.587C13.915 15.2578 13.8228 14.8788 13.8228 14.4599C13.8228 14.41 13.8253 14.3627 13.8253 14.3153C13.8328 14.1732 13.8502 14.0385 13.8751 13.9088C13.9076 13.7542 13.9524 13.6071 14.0123 13.4675C14.1445 13.1583 14.3464 12.884 14.6132 12.6496C14.7878 12.4975 14.9972 12.3703 15.2341 12.2731C15.4186 12.1958 15.6206 12.1384 15.8325 12.0985V11.6945C15.8325 11.6347 15.845 11.5749 15.865 11.5225C15.9248 11.3604 16.067 11.2407 16.239 11.2083C16.2689 11.2033 16.2988 11.2008 16.3288 11.2008H16.598C16.6031 11.2008 16.608 11.2008 16.6131 11.2008C16.8798 11.2083 17.0943 11.4277 17.0943 11.6945V12.106C17.5406 12.1932 17.9371 12.3678 18.2363 12.6146C18.553 12.8765 18.7824 13.2081 18.9245 13.6071C19.0292 13.8988 18.8373 14.2155 18.5305 14.2604L18.2687 14.3003C18.0318 14.3352 17.8025 14.1955 17.7277 13.9711C17.6653 13.7866 17.5805 13.6345 17.4758 13.5173C17.2389 13.253 16.8674 13.1009 16.456 13.1009C16.3313 13.1009 16.2091 13.1159 16.0919 13.1408C16.0146 13.1583 15.9398 13.1807 15.8675 13.2081C15.663 13.2879 15.4835 13.4051 15.3464 13.5572C15.2815 13.6295 15.2291 13.7043 15.1843 13.7841C15.0845 13.9637 15.0347 14.1631 15.0347 14.3851C15.0347 14.6993 15.1219 14.9661 15.2965 15.178C15.4511 15.3625 15.6456 15.4922 15.865 15.5869C16.1642 15.7166 16.5034 15.7864 16.8374 15.8537C17.1741 15.9211 17.5232 15.9909 17.8274 16.1255C18.1491 16.2677 18.4183 16.4447 18.6228 16.6492C18.8298 16.8561 18.9893 17.103 19.1016 17.3872C19.2113 17.669 19.2686 17.9782 19.2686 18.3049C19.2711 19.0255 19.0392 19.6339 18.5804 20.1176Z" fill="#228B22"/>
</g>
<defs>
<clipPath id="clip0_785_562">
<rect width="24" height="24" fill="white"/>
</clipPath>
</defs>
</svg>
