<svg width="21" height="20" viewBox="0 0 21 20" fill="none" xmlns="http://www.w3.org/2000/svg">
<path d="M10.5 0C3.49091 0 0.5 2.99091 0.5 10C0.5 17.0091 3.49091 20 10.5 20C13.8645 20 18.9982 19.5609 19.2145 19.5418C19.6555 19.5036 20.0055 19.1527 20.0427 18.7109C20.0618 18.4845 20.5 13.13 20.5 10C20.5 2.99091 17.5091 0 10.5 0ZM13.6818 6.36364C14.4345 6.36364 15.0455 6.97455 15.0455 7.72727C15.0455 8.48 14.4345 9.09091 13.6818 9.09091C12.9291 9.09091 12.3182 8.48 12.3182 7.72727C12.3182 6.97455 12.9291 6.36364 13.6818 6.36364ZM7.31818 6.36364C8.07091 6.36364 8.68182 6.97455 8.68182 7.72727C8.68182 8.48 8.07091 9.09091 7.31818 9.09091C6.56545 9.09091 5.95455 8.48 5.95455 7.72727C5.95455 6.97455 6.56545 6.36364 7.31818 6.36364ZM14.6127 13.4445C13.6491 14.1955 12.3427 14.5455 10.5 14.5455C8.65727 14.5455 7.35 14.1955 6.38727 13.4445C5.99091 13.1355 5.92091 12.5645 6.23 12.1682C6.53818 11.7727 7.10909 11.7009 7.50546 12.0109C8.12364 12.4927 9.10273 12.7273 10.5 12.7273C11.8973 12.7273 12.8764 12.4927 13.4945 12.0109C13.8909 11.7018 14.4609 11.7727 14.77 12.1682C15.0791 12.5645 15.0091 13.1355 14.6127 13.4445Z" fill="#808080"/>
</svg>
