<svg width="19" height="20" viewBox="0 0 19 20" fill="none" xmlns="http://www.w3.org/2000/svg">
<path opacity="0.4" d="M9.49984 11.1111C12.6065 11.1111 15.1249 8.6238 15.1249 5.55556C15.1249 2.48731 12.6065 0 9.49984 0C6.39319 0 3.87476 2.48731 3.87476 5.55556C3.87476 8.6238 6.39319 11.1111 9.49984 11.1111Z" fill="#808080"/>
<path d="M18.49 16.6758C18.4951 16.5967 18.4951 16.5174 18.49 16.4383C18.4677 16.1461 18.3848 15.8607 18.2459 15.5982C17.6991 14.5297 16.166 14.0456 14.8868 13.7717C13.9742 13.5817 13.0469 13.4595 12.1137 13.4064L11.1372 13.3333H10.6978H10.151H8.84255H8.29573H7.85632L6.87986 13.4064C5.94662 13.4595 5.01934 13.5817 4.10671 13.7717C2.82754 14.0091 1.2945 14.5023 0.747677 15.5982C0.608739 15.8607 0.525823 16.1461 0.503562 16.4383C0.498487 16.5174 0.498487 16.5967 0.503562 16.6758C0.498877 16.7549 0.498877 16.8341 0.503562 16.9132C0.530121 17.203 0.61633 17.4852 0.757442 17.7443C1.30426 18.8128 2.83731 19.2968 4.11647 19.5708C5.0308 19.7519 5.95738 19.8739 6.88962 19.9361L7.86609 20H8.10044H8.30549H10.7076H10.9126H11.147L12.1235 19.9361C13.0557 19.8739 13.9823 19.7519 14.8966 19.5708C16.1758 19.3242 17.7088 18.8402 18.2556 17.7443C18.3902 17.4769 18.4728 17.1894 18.4998 16.895C18.501 16.8218 18.4977 16.7486 18.49 16.6758Z" fill="#808080"/>
</svg>
