<svg width="16" height="16" viewBox="0 0 16 16" fill="none" xmlns="http://www.w3.org/2000/svg">
<g clip-path="url(#clip0_315_398)">
<path d="M5.33333 8C7.53933 8 9.33333 6.206 9.33333 4C9.33333 1.794 7.53933 0 5.33333 0C3.12733 0 1.33333 1.794 1.33333 4C1.33333 6.206 3.12733 8 5.33333 8ZM5.33333 1.33333C6.804 1.33333 8 2.52933 8 4C8 5.47067 6.804 6.66667 5.33333 6.66667C3.86267 6.66667 2.66667 5.47067 2.66667 4C2.66667 2.52933 3.86267 1.33333 5.33333 1.33333ZM10.6667 14.6667V15.3333C10.6667 15.7013 10.368 16 10 16C9.632 16 9.33333 15.7013 9.33333 15.3333V14.6667C9.33333 12.4607 7.53933 10.6667 5.33333 10.6667C3.12733 10.6667 1.33333 12.4607 1.33333 14.6667V15.3333C1.33333 15.7013 1.03467 16 0.666667 16C0.298667 16 0 15.7013 0 15.3333V14.6667C0 11.726 2.39267 9.33333 5.33333 9.33333C8.274 9.33333 10.6667 11.726 10.6667 14.6667ZM15.798 6.81133L13.1367 9.39467C12.7493 9.78267 12.2247 9.99933 11.6667 9.99933C11.1087 9.99933 10.584 9.782 10.19 9.388L8.876 8.152C8.608 7.9 8.59533 7.478 8.848 7.20933C9.10067 6.94133 9.522 6.92867 9.79067 7.18133L11.1187 8.43133C11.4327 8.74467 11.9153 8.73067 12.2007 8.44533L14.8687 5.85467C15.1327 5.598 15.5547 5.60467 15.8113 5.86867C16.068 6.13267 16.0613 6.55533 15.7973 6.81133H15.798Z" fill="#228B22"/>
</g>
<defs>
<clipPath id="clip0_315_398">
<rect width="16" height="16" fill="white"/>
</clipPath>
</defs>
</svg>
