<svg width="16" height="16" viewBox="0 0 16 16" fill="none" xmlns="http://www.w3.org/2000/svg">
<g clip-path="url(#clip0_315_402)">
<path d="M7.9718 16.0054L7.50709 15.607C6.86643 15.0706 1.27246 10.2394 1.27246 6.70554C1.27246 3.0056 4.27187 0.00619507 7.9718 0.00619507C11.6717 0.00619507 14.6711 3.0056 14.6711 6.70554C14.6711 10.2394 9.07718 15.0706 8.43918 15.6097L7.9718 16.0054ZM7.9718 1.45479C5.07327 1.45807 2.72437 3.80698 2.72109 6.70551C2.72109 8.92557 6.16271 12.4721 7.9718 14.0953C9.78093 12.4714 13.2225 8.92288 13.2225 6.70551C13.2192 3.80698 10.8704 1.4581 7.9718 1.45479Z" fill="#228B22"/>
<path d="M7.97197 9.36111C6.50534 9.36111 5.31641 8.17218 5.31641 6.70555C5.31641 5.23893 6.50534 4.04999 7.97197 4.04999C9.43859 4.04999 10.6275 5.23893 10.6275 6.70555C10.6275 8.17218 9.43862 9.36111 7.97197 9.36111ZM7.97197 5.37774C7.23866 5.37774 6.64419 5.97221 6.64419 6.70552C6.64419 7.43883 7.23866 8.0333 7.97197 8.0333C8.70528 8.0333 9.29975 7.43883 9.29975 6.70552C9.29975 5.97221 8.70531 5.37774 7.97197 5.37774Z" fill="#228B22"/>
</g>
<defs>
<clipPath id="clip0_315_402">
<rect width="16" height="16" fill="white"/>
</clipPath>
</defs>
</svg>
