<svg width="19" height="20" viewBox="0 0 19 20" fill="none" xmlns="http://www.w3.org/2000/svg">
<path d="M13.691 0H5.31C2.27 0 0.5 1.78 0.5 4.83V15.16C0.5 18.26 2.27 20 5.31 20H13.691C16.78 20 18.5 18.26 18.5 15.16V4.83C18.5 1.78 16.78 0 13.691 0Z" fill="#808080"/>
<path d="M5.57993 13.7399H13.4198C13.8187 13.7799 14.1199 14.12 14.12 14.5299C14.12 14.9289 13.8188 15.2702 13.4198 15.3102H5.57993C5.27993 15.3502 4.98993 15.1998 4.82993 14.9498C4.66999 14.6898 4.66995 14.36 4.82993 14.11C4.98994 13.85 5.27995 13.7099 5.57993 13.7399ZM13.4198 9.17932C13.8496 9.17932 14.1998 9.52979 14.2 9.95959C14.2 10.3896 13.8498 10.7399 13.4198 10.7399H5.57993C5.14893 10.7399 4.79965 10.3896 4.79965 9.95959C4.79989 9.52979 5.14907 9.17932 5.57993 9.17932H13.4198ZM8.56919 4.65002C9.00003 4.65021 9.34946 5.00043 9.34946 5.42932C9.3493 5.87007 8.99994 6.22016 8.56919 6.22034H5.57993C5.14894 6.22034 4.79968 5.87005 4.79965 5.44006C4.79965 5.01006 5.14893 4.65979 5.57993 4.65979V4.65002H8.56919Z" fill="white"/>
</svg>
