<svg width="20" height="20" viewBox="0 0 20 20" fill="none" xmlns="http://www.w3.org/2000/svg">
<g clip-path="url(#clip0_31_716)">
<path d="M19.1667 10.8333C19.1637 8.54777 18.3077 6.34563 16.7664 4.65802C15.225 2.9704 13.1093 1.91883 10.8334 1.70917V0H9.16672V1.70917C7.46196 1.8615 5.83413 2.48906 4.46828 3.5205C3.10243 4.55194 2.05335 5.94588 1.4403 7.54388C0.827253 9.14187 0.674823 10.8798 1.00034 12.5601C1.32586 14.2404 2.11627 15.7957 3.28172 17.0492L1.67505 18.8142L2.90838 19.9358L4.52005 18.1667C6.09859 19.358 8.02238 20.0026 10 20.0026C11.9777 20.0026 13.9015 19.358 15.4801 18.1667L17.0917 19.9383L18.3251 18.8167L16.7184 17.0517C18.2916 15.3632 19.1665 13.1412 19.1667 10.8333ZM10 18.3333C8.51669 18.3333 7.06664 17.8935 5.83327 17.0694C4.5999 16.2452 3.63861 15.0739 3.07095 13.7035C2.5033 12.333 2.35477 10.825 2.64416 9.37016C2.93355 7.9153 3.64785 6.57893 4.69675 5.53003C5.74564 4.48114 7.08201 3.76683 8.53687 3.47744C9.99173 3.18805 11.4997 3.33658 12.8702 3.90424C14.2406 4.47189 15.412 5.43319 16.2361 6.66656C17.0602 7.89993 17.5001 9.34997 17.5001 10.8333C17.4976 12.8217 16.7067 14.728 15.3007 16.134C13.8947 17.54 11.9884 18.3309 10 18.3333Z" fill="#228B22"/>
<path d="M4.60249 1.45416L3.71333 0.0466614C2.27495 0.890529 1.01776 2.01065 0.0141602 3.3425L1.39999 4.26666C2.27304 3.12851 3.36113 2.17292 4.60249 1.45416Z" fill="#228B22"/>
<path d="M18.6 4.26666L19.9858 3.3425C18.9822 2.01065 17.725 0.890529 16.2866 0.0466614L15.3975 1.45416C16.6388 2.17292 17.7269 3.12851 18.6 4.26666Z" fill="#228B22"/>
<path d="M9.16663 5.83334V10.345L11.9108 13.0892L13.0891 11.9108L10.8333 9.65501V5.83334H9.16663Z" fill="#228B22"/>
</g>
<defs>
<clipPath id="clip0_31_716">
<rect width="20" height="20" fill="white"/>
</clipPath>
</defs>
</svg>
