<svg width="15" height="15" viewBox="0 0 15 15" fill="none" xmlns="http://www.w3.org/2000/svg">
<path d="M11.282 7.8125C11.432 8.6975 12.1982 9.375 13.1251 9.375C14.1589 9.375 15.0001 8.53375 15.0001 7.5C15.0001 6.46625 14.1589 5.625 13.1251 5.625C12.1982 5.625 11.4314 6.3025 11.282 7.1875H9.37512V2.8125C9.37512 2.4675 9.65512 2.1875 10.0001 2.1875H11.282C11.432 3.0725 12.1982 3.75 13.1251 3.75C14.1589 3.75 15.0001 2.90875 15.0001 1.875C15.0001 0.84125 14.1589 0 13.1251 0C12.1982 0 11.4314 0.6775 11.282 1.5625H10.0001C9.31074 1.5625 8.75012 2.12313 8.75012 2.8125V7.1875H7.50012V7.8125H8.75012V12.1875C8.75012 12.8769 9.31074 13.4375 10.0001 13.4375H11.282C11.432 14.3225 12.1982 15 13.1251 15C14.1589 15 15.0001 14.1587 15.0001 13.125C15.0001 12.0913 14.1589 11.25 13.1251 11.25C12.1982 11.25 11.4314 11.9275 11.282 12.8125H10.0001C9.65512 12.8125 9.37512 12.5325 9.37512 12.1875V7.8125H11.282ZM13.1251 6.25C13.8145 6.25 14.3751 6.81063 14.3751 7.5C14.3751 8.18937 13.8145 8.75 13.1251 8.75C12.4357 8.75 11.8751 8.18937 11.8751 7.5C11.8751 6.81063 12.4357 6.25 13.1251 6.25ZM13.1251 0.625C13.8145 0.625 14.3751 1.18562 14.3751 1.875C14.3751 2.56437 13.8145 3.125 13.1251 3.125C12.4357 3.125 11.8751 2.56437 11.8751 1.875C11.8751 1.18562 12.4357 0.625 13.1251 0.625ZM13.1251 11.875C13.8145 11.875 14.3751 12.4356 14.3751 13.125C14.3751 13.8144 13.8145 14.375 13.1251 14.375C12.4357 14.375 11.8751 13.8144 11.8751 13.125C11.8751 12.4356 12.4357 11.875 13.1251 11.875ZM6.56262 7.5C6.56262 7.32875 6.54387 7.15563 6.50387 6.96813L7.45762 6.40812L6.50699 4.79125L5.55949 5.34875C5.30449 5.13625 5.00824 4.97 4.68699 4.8575V3.75062H2.81199V4.8575C2.49012 4.97 2.19449 5.13625 1.93949 5.34875L0.991992 4.79125L0.0419922 6.40812L0.995742 6.96813C0.956367 7.15563 0.936992 7.32812 0.936992 7.5C0.936992 7.67188 0.955742 7.84437 0.995742 8.03187L0.0419922 8.59188L0.992617 10.2087L1.94012 9.65125C2.19512 9.86375 2.49137 10.03 2.81262 10.1425V11.2494H4.68762V10.1425C5.00949 10.03 5.30512 9.86375 5.56012 9.65125L6.50762 10.2087L7.45824 8.59188L6.50449 8.03187C6.54387 7.84437 6.56324 7.67188 6.56324 7.5H6.56262ZM6.60199 8.81437L6.28512 9.35312L5.45012 8.85875C5.11137 9.28187 4.62324 9.575 4.06199 9.65625V10.6256H3.43699V9.65625C2.87824 9.575 2.39137 9.28438 2.05262 8.86375L1.21387 9.35375L0.896992 8.815L1.72762 8.33063C1.62199 8.07438 1.56199 7.795 1.56199 7.50125C1.56199 7.20563 1.62262 6.92438 1.72887 6.6675L0.896992 6.1875L1.21387 5.64875L2.05512 6.135C2.39387 5.71625 2.87887 5.42688 3.43637 5.34563V4.37625H4.06137V5.34563C4.62262 5.42688 5.11074 5.72 5.45012 6.14313L6.28449 5.64812L6.60137 6.18688L5.77262 6.6775C5.87637 6.93188 5.93637 7.20938 5.93637 7.50063C5.93637 7.79188 5.87637 8.07 5.77262 8.32438L6.60199 8.81437ZM3.75012 6.25C3.06074 6.25 2.50012 6.81063 2.50012 7.5C2.50012 8.18937 3.06074 8.75 3.75012 8.75C4.43949 8.75 5.00012 8.18937 5.00012 7.5C5.00012 6.81063 4.43949 6.25 3.75012 6.25ZM3.75012 8.125C3.40512 8.125 3.12512 7.845 3.12512 7.5C3.12512 7.155 3.40512 6.875 3.75012 6.875C4.09512 6.875 4.37512 7.155 4.37512 7.5C4.37512 7.845 4.09512 8.125 3.75012 8.125Z" fill="black"/>
</svg>
