<svg width="30" height="30" viewBox="0 0 30 30" fill="none" xmlns="http://www.w3.org/2000/svg">
<circle cx="15" cy="15" r="7" fill="white"/>
<circle cx="15" cy="15" r="7" fill="#F9F9F9"/>
<g clip-path="url(#clip0_515_956)">
<path d="M18.9274 16.5033C19.2474 16.8308 19.2449 17.3533 18.9199 17.675C18.8582 17.7358 17.3865 19.1667 14.9999 19.1667C12.6132 19.1667 11.1415 17.7367 11.0799 17.675C10.7532 17.3508 10.7499 16.8242 11.074 16.4967C11.399 16.17 11.9249 16.1667 12.2532 16.4908C12.2915 16.5283 13.3199 17.4992 14.9999 17.4992C16.6799 17.4992 17.7082 16.5275 17.7515 16.4867C18.0815 16.1683 18.6082 16.175 18.9274 16.5033ZM12.0832 14.1667C12.7732 14.1667 13.3332 13.6067 13.3332 12.9167C13.3332 12.2267 12.7732 11.6667 12.0832 11.6667C11.3932 11.6667 10.8332 12.2267 10.8332 12.9167C10.8332 13.6067 11.3932 14.1667 12.0832 14.1667ZM17.9165 11.6667C17.2265 11.6667 16.6665 12.2267 16.6665 12.9167C16.6665 13.6067 17.2265 14.1667 17.9165 14.1667C18.6065 14.1667 19.1665 13.6067 19.1665 12.9167C19.1665 12.2267 18.6065 11.6667 17.9165 11.6667ZM24.9999 15.2833V20.8333C24.9999 23.1308 23.1307 25 20.8332 25H15.9024C10.0682 25 5.39236 21.0067 5.02403 15.7117C4.82403 12.815 5.87986 9.98 7.92319 7.93417C9.96819 5.8875 12.809 4.82917 15.6965 5.02417C20.914 5.37834 24.9999 9.88417 24.9999 15.2833ZM23.3332 15.2833C23.3332 10.7575 19.929 6.98167 15.584 6.68667C15.3932 6.67334 15.2024 6.6675 15.0115 6.6675C12.7982 6.6675 10.6707 7.54084 9.10236 9.11167C7.39986 10.8167 6.51903 13.1808 6.68736 15.5967C6.99736 20.08 10.8732 23.3342 15.9024 23.3342H20.8332C22.2115 23.3342 23.3332 22.2125 23.3332 20.8342V15.2833Z" fill="#228B22"/>
</g>
<defs>
<clipPath id="clip0_515_956">
<rect width="20" height="20" fill="white" transform="translate(5 5)"/>
</clipPath>
</defs>
</svg>
